<svg xmlns="http://www.w3.org/2000/svg" width="96" height="16" fill="none"><path fill="#E6B919" d="M7.18 1.178a1 1 0 0 1 1.64 0L10.647 3.8a1 1 0 0 0 .531.385l3.058.927a1 1 0 0 1 .507 1.56l-1.93 2.547a1 1 0 0 0-.202.624l.064 3.194a1 1 0 0 1-1.328.964l-3.018-1.047a1 1 0 0 0-.656 0L4.654 14a1 1 0 0 1-1.328-.964l.064-3.194a1 1 0 0 0-.203-.624L1.258 6.672a1 1 0 0 1 .508-1.56l3.057-.927a1 1 0 0 0 .53-.385L7.18 1.178Zm20 0a1 1 0 0 1 1.64 0L30.647 3.8a1 1 0 0 0 .531.385l3.057.927a1 1 0 0 1 .508 1.56l-1.93 2.547a1 1 0 0 0-.202.624l.064 3.194a1 1 0 0 1-1.328.964l-3.018-1.047a1 1 0 0 0-.656 0L24.654 14a1 1 0 0 1-1.328-.964l.064-3.194a1 1 0 0 0-.203-.624l-1.929-2.547a1 1 0 0 1 .508-1.56l3.057-.927a1 1 0 0 0 .53-.385l1.826-2.622Zm20 0a1 1 0 0 1 1.64 0L50.648 3.8a1 1 0 0 0 .53.385l3.057.927a1 1 0 0 1 .508 1.56l-1.93 2.547a1 1 0 0 0-.202.624l.064 3.194a1 1 0 0 1-1.328.964l-3.018-1.047a1 1 0 0 0-.656 0L44.654 14a1 1 0 0 1-1.328-.964l.064-3.194a1 1 0 0 0-.203-.624l-1.929-2.547a1 1 0 0 1 .508-1.56l3.057-.927a1 1 0 0 0 .53-.385l1.826-2.622Zm20 0a1 1 0 0 1 1.64 0L70.648 3.8a1 1 0 0 0 .53.385l3.057.927a1 1 0 0 1 .508 1.56l-1.93 2.547a1 1 0 0 0-.202.624l.064 3.194a1 1 0 0 1-1.328.964l-3.018-1.047a1 1 0 0 0-.656 0L64.654 14a1 1 0 0 1-1.328-.964l.064-3.194a1 1 0 0 0-.203-.624l-1.929-2.547a1 1 0 0 1 .508-1.56l3.057-.927a1 1 0 0 0 .53-.385l1.826-2.622Zm20 0a1 1 0 0 1 1.64 0L90.648 3.8a1 1 0 0 0 .53.385l3.057.927a1 1 0 0 1 .508 1.56l-1.93 2.547a1 1 0 0 0-.202.624l.064 3.194a1 1 0 0 1-1.328.964l-3.018-1.047a1 1 0 0 0-.656 0L84.654 14a1 1 0 0 1-1.328-.964l.064-3.194a1 1 0 0 0-.203-.624l-1.929-2.547a1 1 0 0 1 .508-1.56l3.057-.927a1 1 0 0 0 .53-.385l1.826-2.622Z"/></svg>